<?xml version="1.0" ?>
<svg fill="none" height="48" viewBox="0 0 24 24" width="48" xmlns="http://www.w3.org/2000/svg">
    <path clip-rule="evenodd"
          d="M15.1707 5C15.5825 3.83481 16.6938 3 18 3C19.6569 3 21 4.34315 21 6C21 7.65685 19.6569 9 18 9C16.6938 9 15.5825 8.16519 15.1707 7H4C3.44772 7 3 6.55228 3 6C3 5.44772 3.44772 5 4 5H15.1707ZM18 5C17.4477 5 17 5.44772 17 6C17 6.55228 17.4477 7 18 7C18.5523 7 19 6.55228 19 6C19 5.44772 18.5523 5 18 5ZM3 12C3 10.3431 4.34315 9 6 9C7.30622 9 8.41746 9.83481 8.82929 11H20C20.5523 11 21 11.4477 21 12C21 12.5523 20.5523 13 20 13H8.82929C8.41746 14.1652 7.30622 15 6 15C4.34315 15 3 13.6569 3 12ZM6 11C5.44772 11 5 11.4477 5 12C5 12.5523 5.44772 13 6 13C6.55228 13 7 12.5523 7 12C7 11.4477 6.55228 11 6 11ZM9.17071 17C9.58254 15.8348 10.6938 15 12 15C13.3062 15 14.4175 15.8348 14.8293 17H20C20.5523 17 21 17.4477 21 18C21 18.5523 20.5523 19 20 19H14.8293C14.4175 20.1652 13.3062 21 12 21C10.6938 21 9.58254 20.1652 9.17071 19H4C3.44772 19 3 18.5523 3 18C3 17.4477 3.44772 17 4 17H9.17071ZM12 17C11.4477 17 11 17.4477 11 18C11 18.5523 11.4477 19 12 19C12.5523 19 13 18.5523 13 18C13 17.4477 12.5523 17 12 17Z"
          fill="#FFF" fill-rule="evenodd"/>
</svg>