<?xml version="1.0" ?>
<svg id="icon" viewBox="0 0 32 32" xmlns="http://www.w3.org/2000/svg">
    <defs>
        <style>.cls-1{fill:none;}</style>
    </defs>
    <title/>
    <path fill="#FFF"
          d="M9.5,8H20.1a5,5,0,1,0,0-2H9.5a5.5,5.5,0,0,0,0,11h11a3.5,3.5,0,0,1,0,7H11.9a5,5,0,1,0,0,2h8.6a5.5,5.5,0,0,0,0-11H9.5a3.5,3.5,0,0,1,0-7ZM25,4a3,3,0,1,1-3,3A3,3,0,0,1,25,4ZM7,28a3,3,0,1,1,3-3A3,3,0,0,1,7,28Z"/>
    <rect class="cls-1" data-name="&lt;Transparent Rectangle&gt;" height="32" id="_Transparent_Rectangle_" width="32"/>
</svg>