<?xml version="1.0" ?>
<svg xmlns="http://www.w3.org/2000/svg" version="1.1" viewBox="0 0 512 512"
     style="enable-background:new 0 0 512 512;" xml:space="preserve"><g id="_x30_2_x2C__Rgb_x2C__edit_color_x2C__color_scheme_x2C__art_and_design_x2C__edit_tools_x2C__miscellaneous"><g><g><path style="fill:#FFF;" d="M411,156C411,70.533,341.468,1,256,1S101,70.533,101,156c0,17.916,3.007,35.351,8.94,51.98     C44.12,228.388,1,289.345,1,356c0,85.468,69.532,155,155,155c39.981,0,77.944-15.186,106.896-42.759     c0.001,0,0.001-0.001,0.002-0.001c46.339-44.151,58.826-108.818,39.149-164.195C365.401,284.355,411,225.13,411,156z M291,356     c0,75.496-61.283,135-135,135c-74.439,0-135-60.561-135-135c0-62.369,41.211-113.366,96.918-129.585     c30.627,59.888,96.844,93.978,164.568,82.324C287.987,323.454,291,339.378,291,356z M138.309,222.147     c55.639-7.23,108.597,20.136,135.382,67.687C216.76,297.214,164.488,268.559,138.309,222.147z M294.091,285.553     c-30.589-59.96-96.84-93.983-164.575-82.28C123.867,188.196,121,172.332,121,156c0-74.439,60.561-135,135-135s135,60.561,135,135     C391,217.764,349.614,269.224,294.091,285.553z"/></g><g><path style="fill:#FFF;" d="M356,201c-85.775,0-155,69.548-155,155c0,42.825,17.083,82.687,48.102,112.24     c0.001,0,0.001,0.001,0.002,0.001C278.056,495.814,316.019,511,356,511c85.468,0,155-69.532,155-155     C511,270.984,442.123,201,356,201z M356,491c-34.822,0-67.887-13.226-93.104-37.241l0.002,0.001     C235.88,428.018,221,393.3,221,356c0-74.414,60.277-135,135-135c73.84,0,135,58.977,135,135C491,430.439,430.439,491,356,491z"/></g></g></g>
    <g id="Layer_1"/></svg>