<svg class="icon" viewBox="0 0 1024 1024" version="1.1" xmlns="http://www.w3.org/2000/svg"
     width="200" height="200">
    <path d="M705.9456 264.32a314.368 314.368 0 0 0-43.2384-30.1824c-2.3296 4.0704-4.864 7.7568-8.3712 12.416 1.5872-2.0992-5.4528 7.168-7.0144 9.344-13.7216 19.072-20.1216 41.8304-20.1216 91.776 0 39.4496 4.7104 68.608 15.3088 103.0912 1.3312 4.352 26.7776 78.08 35.1744 107.7248 17.5104 61.824 0.2048 164.4544-22.6304 222.8736 20.1216-10.9312 38.912-23.9872 56.064-38.8864 2.2272-6.5792 11.4944-33.3056 14.336-41.984 13.2608-40.1152 20.4032-71.8336 21.3504-102.272a166.8608 166.8608 0 0 0-3.9168-43.264 585.216 585.216 0 0 0-22.4-74.5984c-0.1024-0.256-12.3392-32.3072-15.36-41.1136-9.6768-28.3136-13.9264-53.1968-13.9264-88.704 0-39.0144 4.864-65.6128 14.7456-86.2208z m29.9776 28.4416c-4.1728 13.9008-6.3232 32.128-6.3232 57.7792 0 31.36 3.584 52.1728 11.9296 76.6464 2.7648 8.0896 14.7456 39.4752 15.0272 40.2688a622.08 622.08 0 0 1 23.7568 79.0272c3.9168 16.7168 5.4528 34.3296 4.864 52.8896-0.64 21.248-3.84 42.496-9.472 65.6384A312.1408 312.1408 0 0 0 819.2 505.6c0-82.1504-31.5904-156.928-83.2768-212.8384z m-107.648-75.8528a311.936 311.936 0 0 0-103.4752-24.32v626.0224a312.4736 312.4736 0 0 0 77.1584-14.4896 19.1232 19.1232 0 0 1 4.48-11.3664c5.504-6.528 20.4288-45.8752 29.5424-84.6592 12.544-53.1968 15.104-102.5536 4.736-139.136-8.0128-28.3648-33.28-101.5296-34.9184-106.9056-11.6736-38.016-16.9984-70.9632-16.9984-114.3808 0-57.5488 8.6016-88.1408 27.3152-114.176 1.8944-2.6112 9.1648-12.2112 7.6288-10.1632 1.92-2.56 3.328-4.5568 4.5312-6.4256zM486.4 857.088c-185.472-9.984-332.8-163.5328-332.8-351.488 0-187.9552 147.328-341.504 332.8-351.488V96a19.2 19.2 0 1 1 38.4 0v58.112c185.472 9.984 332.8 163.5328 332.8 351.488 0 187.9552-147.328 341.504-332.8 351.488v75.136a19.2 19.2 0 1 1-38.4 0V857.088z m0-38.4768V192.5888C322.1504 202.496 192 338.8416 192 505.6S322.1504 808.704 486.4 818.6112z"
          fill="#FFFFFF" stroke-width="20" stroke="#FFF"/>
</svg>